<svg xmlns="http://www.w3.org/2000/svg" xmlns:xlink="http://www.w3.org/1999/xlink" width="512" height="512" x="0" y="0" viewBox="0 0 24 24" style="enable-background:new 0 0 512 512" xml:space="preserve" class=""><g><path d="M20.508 11.954C19.367 3.79 18.375 3.25 12.004 3.25c-6.381 0-7.374.537-8.512 8.693-.497 3.558-.225 5.632.91 6.937 1.361 1.564 3.815 1.87 7.593 1.87 3.785 0 6.243-.307 7.604-1.872 1.134-1.303 1.406-3.373.91-6.924zm-2.04 5.94c-.982 1.13-3.204 1.356-6.472 1.356-3.262 0-5.48-.227-6.462-1.355-.81-.93-.981-2.703-.556-5.745 1.033-7.4 1.372-7.4 7.027-7.4 5.644 0 5.982 0 7.018 7.412.424 3.035.253 4.803-.555 5.732z" fill="#000000" opacity="1" data-original="#000000" class=""></path><path d="M14.5 6.75a.75.75 0 0 0-.75.75 1.75 1.75 0 0 1-3.5 0 .75.75 0 0 0-1.5 0 3.25 3.25 0 0 0 6.5 0 .75.75 0 0 0-.75-.75z" fill="#000000" opacity="1" data-original="#000000" class=""></path></g></svg>